<?xml version="1.0" standalone="no"?>
<!DOCTYPE svg PUBLIC "-//W3C//DTD SVG 20010904//EN"
 "http://www.w3.org/TR/2001/REC-SVG-20010904/DTD/svg10.dtd">
<svg version="1.0" xmlns="http://www.w3.org/2000/svg"
 width="512.000000pt" height="512.000000pt" viewBox="0 0 512.000000 512.000000"
 preserveAspectRatio="xMidYMid meet">
<metadata>
Created by potrace 1.14, written by Peter Selinger 2001-2017
</metadata>
<g transform="translate(0.000000,512.000000) scale(0.100000,-0.100000)"
fill="#000000" stroke="none">
<path d="M543 5035 c-159 -35 -307 -152 -382 -304 -59 -119 -56 -28 -56 -1631
0 -811 3 -1497 7 -1525 11 -86 58 -236 103 -330 100 -209 239 -357 470 -502
33 -21 81 -42 260 -112 94 -37 179 -71 190 -76 11 -5 22 -9 25 -10 3 -1 14 -5
25 -10 11 -5 180 -71 375 -147 195 -76 364 -143 375 -148 48 -22 286 -110 350
-128 105 -31 148 -36 290 -37 227 0 335 24 560 125 11 5 43 18 70 28 48 18
597 240 660 267 17 7 50 20 75 30 48 19 102 41 135 55 11 5 83 34 159 65 146
59 220 96 296 149 99 69 212 183 278 281 26 39 49 72 52 75 13 13 81 162 99
220 58 181 55 73 58 1691 2 1452 2 1488 -17 1558 -30 105 -77 188 -150 261
-74 75 -153 120 -260 149 -74 21 -83 21 -2030 20 -1600 -1 -1966 -3 -2017 -14z
m1160 -4262 c-7 -2 -19 -2 -25 0 -7 3 -2 5 12 5 14 0 19 -2 13 -5z"/>
</g>
</svg>
